# xmcd
# 
# Track frame offsets:
#     150
#     17330
#     39172
#     55802
#     75342
#     92642
#     114590
#     133450
#     149867
#     167180
#     181922
#     204277
# 
# Disc length: 2971
# 
# Revision: 3
# Processed by: cddbd v1.5.2PL0 Copyright (c) Steve Scherf et al.
# Submitted via: fre:ac v1.0.31
# 
DISCID=9c0b990c
DTITLE=Gloria Estefan - Cuts Both Ways
DYEAR=1989
DGENRE=Rock/Pop
TTITLE0=Ay, Ay, I
TTITLE1=Here We Are
TTITLE2=Say
TTITLE3=Think About You Now
TTITLE4=Nothin' New
TTITLE5=Oye Mi Canto (Hear My Voice) (English Version)
TTITLE6=Don't Wanna Lose You
TTITLE7=Get On Your Feet
TTITLE8=Your Love Is Bad For Me
TTITLE9=Cuts Both Ways
TTITLE10=Oye Mi Canto (Spanish Version)
TTITLE11=Si Voy A Perderte
EXTD=
EXTT0=
EXTT1=
EXTT2=
EXTT3=
EXTT4=
EXTT5=
EXTT6=
EXTT7=
EXTT8=
EXTT9=
EXTT10=
EXTT11=
PLAYORDER=
